<mxfile host="app.diagrams.net" agent="Mozilla/5.0 (Macintosh; Intel Mac OS X 10_15_7) AppleWebKit/537.36 (KHTML, like Gecko) Chrome/127.0.0.0 Safari/537.36" version="24.7.7">
  <diagram name="第 1 页" id="cTtfurwDeQWOhhCvHw4j">
    <mxGraphModel dx="1162" dy="792" grid="1" gridSize="10" guides="1" tooltips="1" connect="1" arrows="1" fold="1" page="1" pageScale="1" pageWidth="827" pageHeight="1169" math="0" shadow="0">
      <root>
        <mxCell id="0" />
        <mxCell id="1" parent="0" />
        <mxCell id="FKhg8QgWDwiOiOrDwJd2-3" value="" style="edgeStyle=orthogonalEdgeStyle;rounded=0;orthogonalLoop=1;jettySize=auto;html=1;" edge="1" parent="1" source="FKhg8QgWDwiOiOrDwJd2-1" target="FKhg8QgWDwiOiOrDwJd2-2">
          <mxGeometry relative="1" as="geometry" />
        </mxCell>
        <mxCell id="FKhg8QgWDwiOiOrDwJd2-1" value="Developing a App" style="rounded=0;whiteSpace=wrap;html=1;" vertex="1" parent="1">
          <mxGeometry x="90" y="110" width="120" height="60" as="geometry" />
        </mxCell>
        <mxCell id="FKhg8QgWDwiOiOrDwJd2-5" value="" style="edgeStyle=orthogonalEdgeStyle;rounded=0;orthogonalLoop=1;jettySize=auto;html=1;" edge="1" parent="1" source="FKhg8QgWDwiOiOrDwJd2-2" target="FKhg8QgWDwiOiOrDwJd2-4">
          <mxGeometry relative="1" as="geometry" />
        </mxCell>
        <mxCell id="FKhg8QgWDwiOiOrDwJd2-9" style="edgeStyle=orthogonalEdgeStyle;rounded=0;orthogonalLoop=1;jettySize=auto;html=1;" edge="1" parent="1" source="FKhg8QgWDwiOiOrDwJd2-2" target="FKhg8QgWDwiOiOrDwJd2-8">
          <mxGeometry relative="1" as="geometry" />
        </mxCell>
        <mxCell id="FKhg8QgWDwiOiOrDwJd2-2" value="intergrated internal basic components (Network, Imagecache)" style="rounded=0;whiteSpace=wrap;html=1;" vertex="1" parent="1">
          <mxGeometry x="90" y="250" width="120" height="60" as="geometry" />
        </mxCell>
        <mxCell id="FKhg8QgWDwiOiOrDwJd2-7" value="" style="edgeStyle=orthogonalEdgeStyle;rounded=0;orthogonalLoop=1;jettySize=auto;html=1;" edge="1" parent="1" source="FKhg8QgWDwiOiOrDwJd2-4" target="FKhg8QgWDwiOiOrDwJd2-6">
          <mxGeometry relative="1" as="geometry" />
        </mxCell>
        <mxCell id="FKhg8QgWDwiOiOrDwJd2-10" style="edgeStyle=orthogonalEdgeStyle;rounded=0;orthogonalLoop=1;jettySize=auto;html=1;entryX=0;entryY=0.5;entryDx=0;entryDy=0;" edge="1" parent="1" source="FKhg8QgWDwiOiOrDwJd2-4" target="FKhg8QgWDwiOiOrDwJd2-8">
          <mxGeometry relative="1" as="geometry" />
        </mxCell>
        <mxCell id="FKhg8QgWDwiOiOrDwJd2-4" value="Choose to integrate Common components(UIkit warpper class Alert)" style="rounded=0;whiteSpace=wrap;html=1;" vertex="1" parent="1">
          <mxGeometry x="90" y="390" width="120" height="60" as="geometry" />
        </mxCell>
        <mxCell id="FKhg8QgWDwiOiOrDwJd2-24" style="edgeStyle=orthogonalEdgeStyle;rounded=0;orthogonalLoop=1;jettySize=auto;html=1;entryX=0;entryY=0.5;entryDx=0;entryDy=0;" edge="1" parent="1" source="FKhg8QgWDwiOiOrDwJd2-6" target="FKhg8QgWDwiOiOrDwJd2-8">
          <mxGeometry relative="1" as="geometry" />
        </mxCell>
        <mxCell id="FKhg8QgWDwiOiOrDwJd2-6" value="developing new module, may need more dependencies" style="rounded=0;whiteSpace=wrap;html=1;" vertex="1" parent="1">
          <mxGeometry x="90" y="530" width="120" height="60" as="geometry" />
        </mxCell>
        <mxCell id="FKhg8QgWDwiOiOrDwJd2-12" value="" style="edgeStyle=orthogonalEdgeStyle;rounded=0;orthogonalLoop=1;jettySize=auto;html=1;" edge="1" parent="1" source="FKhg8QgWDwiOiOrDwJd2-8" target="FKhg8QgWDwiOiOrDwJd2-11">
          <mxGeometry relative="1" as="geometry" />
        </mxCell>
        <mxCell id="FKhg8QgWDwiOiOrDwJd2-8" value="Podfile configration" style="rounded=0;whiteSpace=wrap;html=1;" vertex="1" parent="1">
          <mxGeometry x="300" y="290" width="70" height="140" as="geometry" />
        </mxCell>
        <mxCell id="FKhg8QgWDwiOiOrDwJd2-18" style="edgeStyle=orthogonalEdgeStyle;rounded=0;orthogonalLoop=1;jettySize=auto;html=1;" edge="1" parent="1" source="FKhg8QgWDwiOiOrDwJd2-11" target="FKhg8QgWDwiOiOrDwJd2-13">
          <mxGeometry relative="1" as="geometry" />
        </mxCell>
        <mxCell id="FKhg8QgWDwiOiOrDwJd2-11" value="pull 19 Gitlab Repo daily, then Analyze&amp;nbsp;Projects and post data" style="rounded=0;whiteSpace=wrap;html=1;align=left;" vertex="1" parent="1">
          <mxGeometry x="480" y="170" width="90" height="380" as="geometry" />
        </mxCell>
        <mxCell id="FKhg8QgWDwiOiOrDwJd2-13" value="&lt;div&gt;&lt;br&gt;&lt;/div&gt;" style="rounded=0;whiteSpace=wrap;html=1;" vertex="1" parent="1">
          <mxGeometry x="660" y="160" width="450" height="400" as="geometry" />
        </mxCell>
        <mxCell id="FKhg8QgWDwiOiOrDwJd2-22" value="Dependency information:&lt;br&gt;Name&amp;nbsp;&lt;br&gt;Version&lt;br&gt;Target&lt;br&gt;Contributor&lt;div&gt;&lt;br&gt;&lt;/div&gt;" style="whiteSpace=wrap;html=1;aspect=fixed;align=left;" vertex="1" parent="1">
          <mxGeometry x="690" y="300" width="140" height="140" as="geometry" />
        </mxCell>
        <mxCell id="FKhg8QgWDwiOiOrDwJd2-23" value="&lt;div&gt;&lt;span style=&quot;background-color: initial;&quot;&gt;Notification:&amp;nbsp;&lt;/span&gt;&lt;/div&gt;&lt;div&gt;Daily review&lt;br&gt;Need upgrade&lt;br&gt;Pushing Intergration Rate&lt;/div&gt;" style="whiteSpace=wrap;html=1;aspect=fixed;align=left;" vertex="1" parent="1">
          <mxGeometry x="870" y="315" width="110" height="110" as="geometry" />
        </mxCell>
      </root>
    </mxGraphModel>
  </diagram>
</mxfile>
